<svg width="397" height="130" viewBox="0 0 397 130" fill="none" xmlns="http://www.w3.org/2000/svg">
<path d="M59.7196 178C58.773 177.881 57.5897 177.403 57.1164 176.091C56.2881 173.705 55.4598 170.842 55.4598 167.859C56.2881 140.181 64.3344 115.605 71.7891 94.7265C79.4804 73.3713 90.13 53.567 100.425 34.4786C103.028 29.4678 105.749 24.5764 108.353 19.5657C112.967 10.8566 114.742 5.48794 113.559 3.57909C113.322 3.10187 112.967 2.86327 112.494 2.74397C112.257 2.62466 111.902 2.62466 111.547 2.62466C110.601 2.62466 109.654 2.86327 108.826 3.22118L108.234 3.34048C104.448 4.53351 101.253 6.56166 97.9397 8.70912C76.1673 22.7869 58.2997 40.563 42.207 57.7426C36.7639 63.5885 31.3208 69.5536 25.996 75.3995C20.7896 81.126 15.5831 86.8525 10.2583 92.5791C9.90335 92.8177 9.66669 93.1756 9.31171 93.6528C8.01009 95.0844 6.59015 96.7547 4.81523 96.7547C3.98693 96.7547 3.27696 96.5161 2.33033 95.9196C-0.982865 93.7721 -0.0362376 90.6702 0.792061 87.807L1.14705 86.6139C7.41845 63.3499 16.6481 40.9209 29.6642 18.0147C30.2558 16.941 30.9658 15.9866 31.7941 15.1515C32.1491 14.7936 32.7407 14.555 33.0957 14.555C33.569 14.6743 33.924 14.9129 34.0423 15.2708C34.279 15.6287 34.279 16.1059 34.1607 16.5831C33.3324 19.0885 32.6224 21.8324 31.5574 24.2185L29.1909 29.4678C24.1028 41.3981 18.778 53.8056 13.9265 66.0938C12.2699 70.2694 10.7316 74.5643 9.19338 78.74L6.82681 85.3016C6.59015 85.7788 6.3535 86.3753 6.11684 86.8526C5.76185 87.5684 5.40687 88.4035 5.17021 89.1193C4.93355 89.9544 4.57857 90.7895 5.05188 91.3861C5.5252 91.8633 5.88018 91.9826 6.23517 91.9826C6.94514 91.9826 7.77344 91.3861 8.48341 90.6702C14.8731 84.9437 19.6063 80.2909 23.7478 75.7574C26.5877 72.6555 29.3092 69.6729 32.1491 66.5711C49.5434 47.6019 67.5293 27.7976 88.7101 11.9303C93.9165 7.87399 99.7146 3.8177 106.578 1.19303L107.169 1.07373C108.471 0.477213 109.891 0 111.429 0C112.731 0 114.032 0.477213 115.216 1.43163C118.174 3.937 117.346 6.56166 116.517 9.06702L116.281 9.78284C113.086 20.4008 107.761 29.8257 102.673 39.0121C101.253 41.756 99.7146 44.3807 98.2947 47.1247C83.5036 75.0416 67.4109 109.162 60.7846 149.367C60.5479 150.799 60.1929 152.35 59.9563 153.782C58.5363 160.82 57.1164 168.098 60.6662 176.568C60.7846 176.926 60.7846 177.284 60.6662 177.523C60.5479 177.761 60.1929 178 59.7196 178Z" fill="#EADFC8"/>
<path d="M156.075 69.9115C156.43 70.0308 156.667 70.0308 156.785 70.2694C156.903 70.6273 156.667 71.2239 156.193 71.7011C148.147 80.2909 138.207 87.9263 126.493 94.3686L125.783 94.8458C124.836 95.3231 123.89 95.9196 122.825 95.9196C121.996 95.9196 121.168 95.5617 120.34 94.8458C118.21 93.0563 118.683 91.3861 119.393 89.5965C119.511 89.2386 119.63 88.8807 119.748 88.5228C121.168 83.3928 123.416 78.7399 125.665 74.5643C125.665 74.5643 128.623 69.0764 129.214 67.8834C129.333 67.7641 129.451 67.4062 129.688 67.0483C131.108 65.0201 132.528 62.6341 131.936 61.2024C131.818 60.8445 131.581 60.6059 131.226 60.3673C131.108 60.3673 130.871 60.248 130.634 60.248C129.096 60.248 126.73 62.8727 126.73 62.8727C125.546 64.185 124.245 66.0938 124.126 68.5992V68.9571C124.126 69.6729 124.126 70.7467 123.653 70.7467C123.416 70.7467 122.943 70.6273 121.878 69.5536L121.641 69.1957L120.813 70.0308C120.458 70.508 119.985 70.866 119.63 71.3432C117.855 73.252 116.198 75.2802 114.542 77.3083C110.755 81.7225 106.969 86.256 102.354 89.9544L101.407 90.7895C99.9873 91.9826 98.449 93.2949 96.6741 93.2949C95.8458 93.2949 95.0175 93.0563 94.1892 92.4598C90.7577 90.0737 91.7043 86.7333 92.4143 83.7507L92.6509 82.9156C94.5442 75.3995 97.8574 68.7185 102.709 63.2306C106.259 59.4129 110.045 57.504 114.778 57.504H115.252C117.263 57.6233 119.275 57.6233 120.221 58.9357C121.76 60.9638 123.061 61.9182 124.245 61.9182C125.546 61.9182 126.493 61.0831 127.439 60.1287L127.794 59.7708C128.504 59.055 129.333 58.4584 130.279 58.1005C130.989 57.7426 131.699 57.3847 132.409 57.3847C133.001 57.3847 133.474 57.6233 133.948 58.1005C135.367 59.1743 135.013 60.248 134.303 61.5603C131.699 67.2869 128.978 73.0134 126.256 78.6206L124.126 83.0349C123.298 84.8244 122.588 86.7333 121.996 88.6421L121.286 90.3123C121.05 91.1475 121.05 91.744 121.286 92.1019C121.405 92.4598 121.641 92.5791 121.996 92.6984C122.233 92.8177 122.47 92.8177 122.706 92.8177C124.363 92.8177 126.848 91.5054 127.558 91.0282C132.646 87.5684 137.616 83.87 142.231 80.5295C143.769 79.3365 145.189 78.1434 146.609 76.9504C147.674 76.1153 148.62 75.2802 149.685 74.445C150.277 74.0871 150.75 73.7292 151.223 73.252C152.17 72.5362 152.998 71.7011 154.063 71.1046L154.418 70.866C154.892 70.508 155.602 69.9115 156.075 69.9115ZM121.405 65.378C122.233 64.5429 122.233 63.4692 121.405 62.2761C120.458 61.0831 119.038 60.248 117.737 60.248C117.5 60.248 117.382 60.248 117.145 60.3673C115.252 60.7252 113.477 61.3217 112.057 62.1568C105.075 66.3324 101.171 73.1327 97.9757 79.2172C97.6207 79.8137 97.2658 80.4102 96.9108 81.126C96.0825 82.5576 95.1358 84.1086 94.6625 85.8981C94.5442 86.7332 94.3075 89.3579 95.3725 90.4316C95.7275 90.6702 96.0825 90.7895 96.4375 90.7895C96.7924 90.7895 97.1474 90.6702 97.5024 90.4316C104.365 86.256 109.454 79.933 114.305 73.9678C116.553 71.1046 118.92 68.122 121.405 65.378Z" fill="#EADFC8"/>
<path d="M239.888 75.996C240.006 76.3539 240.124 77.3083 238.586 79.6944C234.563 85.8981 229.356 91.6247 223.558 96.1582C220.718 98.3056 217.76 100.214 214.565 101.646L214.21 101.885C211.489 103.316 207.347 105.345 203.324 105.345C200.721 105.345 198.709 104.509 196.934 102.839C193.266 99.3794 193.739 95.8003 194.568 92.4598C194.923 90.7895 195.869 89.4772 196.816 88.1649C197.171 87.6877 197.644 87.0912 197.881 86.6139C198.828 85.063 199.774 83.0349 199.064 81.8418C198.709 81.3646 198.118 81.126 197.289 81.126C196.934 81.126 196.461 81.126 195.988 81.2453C193.148 81.8418 191.255 83.5121 189.48 85.1823C188.415 86.1367 187.231 87.0912 185.93 87.9263C185.22 88.2842 184.51 88.7614 183.8 89.1193C182.025 90.3123 180.132 91.6247 177.647 91.9826C177.173 92.1019 176.582 92.2212 176.109 92.2212C174.925 92.2212 173.979 91.8633 173.387 91.2668C172.559 90.4316 172.204 89 172.322 87.0912C172.559 83.0349 174.334 79.6944 176.227 76.4732C177.055 74.9222 178.002 73.3713 178.83 71.9397C179.422 70.7467 180.132 69.6729 180.723 68.5992C181.197 67.8834 181.67 67.1676 182.143 66.5711C182.735 65.7359 183.445 64.7815 183.918 63.8271C184.746 61.9182 184.865 61.0831 184.392 60.4866C184.155 60.248 183.8 60.0094 183.208 60.0094C182.143 60.0094 180.842 60.8445 180.605 61.0831C177.41 63.4692 174.452 66.571 171.612 69.5536C170.665 70.6273 169.6 71.8204 168.536 72.8941C163.921 77.4276 159.188 82.0804 154.336 86.6139C153.626 87.3298 152.916 87.9263 151.97 87.9263C151.733 87.9263 151.615 87.9263 151.378 87.807C150.313 87.5684 149.485 86.3753 149.248 85.3016C148.893 84.2279 149.13 83.1542 149.366 82.0804C150.905 75.8767 153.389 70.3887 156.584 65.378C157.058 64.7815 157.413 64.3043 158.004 64.0657C158.241 63.8271 158.596 63.8271 158.833 63.8271C159.188 63.8271 159.543 63.8271 159.898 64.185C160.607 64.5429 160.844 65.378 160.962 65.9745C160.962 66.6903 160.726 67.4062 160.489 68.0027L155.874 79.6944C155.756 80.1716 155.756 80.7681 155.993 81.2453C156.229 81.4839 156.466 81.6032 156.821 81.7225C157.294 81.7225 157.413 81.4839 157.531 81.3646C160.844 78.382 164.039 75.2802 167.234 72.1783C172.44 67.0483 177.883 61.6796 183.682 56.9075C184.51 56.1917 185.575 55.3566 186.758 55.3566C186.995 55.3566 187.35 55.4759 187.705 55.5952C189.361 56.1917 190.426 58.2198 190.426 59.7708C190.426 61.441 189.361 63.2306 188.533 64.9008C188.178 65.378 187.941 65.9745 187.586 66.4517C186.403 69.0764 185.101 71.4625 183.918 73.9678L183.327 75.0416C181.907 77.9048 180.368 80.6488 178.712 83.7507L175.754 89.1193L176.7 89C180.723 88.1649 183.445 86.6139 186.166 85.063C187.231 84.3472 188.296 83.7507 189.48 83.2735C190.545 82.7962 191.491 82.1997 192.438 81.6032C194.568 80.4102 196.816 79.0979 199.538 78.74C199.893 78.74 200.248 78.6206 200.603 78.6206C201.431 78.6206 202.614 78.8593 203.206 79.5751C203.797 80.2909 203.916 81.3646 203.561 82.7962C202.851 85.063 202.022 87.3298 201.194 89.4772C200.484 91.1475 199.774 92.8177 199.183 94.4879C199.064 94.8459 198.946 95.0844 198.828 95.4424C198.236 96.9933 197.408 99.0215 199.656 101.169C200.957 102.481 202.377 103.078 204.034 103.078C205.099 103.078 206.164 102.839 207.111 102.601C216.222 100.453 222.73 95.0844 227.936 90.0737C231.723 86.4946 234.563 82.0804 236.574 78.6206C237.876 76.3539 238.823 75.6381 239.414 75.6381C239.414 75.6381 239.651 75.6381 239.888 75.996Z" fill="#EADFC8"/>
<path d="M296.766 69.9115C297.121 70.0308 297.357 70.0308 297.476 70.2694C297.594 70.6273 297.357 71.2239 296.884 71.7011C288.838 80.2909 278.898 87.9263 267.183 94.3686L266.474 94.8458C265.527 95.3231 264.58 95.9196 263.515 95.9196C262.687 95.9196 261.859 95.5617 261.03 94.8458C258.9 93.0563 259.374 91.3861 260.084 89.5965C260.202 89.2386 260.32 88.8807 260.439 88.5228C261.859 83.3928 264.107 78.7399 266.355 74.5643C266.355 74.5643 269.313 69.0764 269.905 67.8834C270.023 67.7641 270.142 67.4062 270.378 67.0483C271.798 65.0201 273.218 62.6341 272.627 61.2024C272.508 60.8445 272.272 60.6059 271.917 60.3673C271.798 60.3673 271.562 60.248 271.325 60.248C269.787 60.248 267.42 62.8727 267.42 62.8727C266.237 64.185 264.935 66.0938 264.817 68.5992V68.9571C264.817 69.6729 264.817 70.7467 264.344 70.7467C264.107 70.7467 263.634 70.6273 262.569 69.5536L262.332 69.1957L261.504 70.0308C261.149 70.508 260.675 70.866 260.32 71.3432C258.546 73.252 256.889 75.2802 255.232 77.3083C251.446 81.7225 247.659 86.256 243.044 89.9544L242.098 90.7895C240.678 91.9826 239.14 93.2949 237.365 93.2949C236.536 93.2949 235.708 93.0563 234.88 92.4598C231.448 90.0737 232.395 86.7333 233.105 83.7507L233.342 82.9156C235.235 75.3995 238.548 68.7185 243.399 63.2306C246.949 59.4129 250.736 57.504 255.469 57.504H255.942C257.954 57.6233 259.965 57.6233 260.912 58.9357C262.45 60.9638 263.752 61.9182 264.935 61.9182C266.237 61.9182 267.183 61.0831 268.13 60.1287L268.485 59.7708C269.195 59.055 270.023 58.4584 270.97 58.1005C271.68 57.7426 272.39 57.3847 273.1 57.3847C273.692 57.3847 274.165 57.6233 274.638 58.1005C276.058 59.1743 275.703 60.248 274.993 61.5603C272.39 67.2869 269.668 73.0134 266.947 78.6206L264.817 83.0349C263.989 84.8244 263.279 86.7333 262.687 88.6421L261.977 90.3123C261.74 91.1475 261.74 91.744 261.977 92.1019C262.095 92.4598 262.332 92.5791 262.687 92.6984C262.924 92.8177 263.16 92.8177 263.397 92.8177C265.054 92.8177 267.538 91.5054 268.248 91.0282C273.337 87.5684 278.306 83.87 282.921 80.5295C284.459 79.3365 285.879 78.1434 287.299 76.9504C288.364 76.1153 289.311 75.2802 290.376 74.445C290.967 74.0871 291.441 73.7292 291.914 73.252C292.861 72.5362 293.689 71.7011 294.754 71.1046L295.109 70.866C295.582 70.508 296.292 69.9115 296.766 69.9115ZM262.095 65.378C262.924 64.5429 262.924 63.4692 262.095 62.2761C261.149 61.0831 259.729 60.248 258.427 60.248C258.191 60.248 258.072 60.248 257.836 60.3673C255.942 60.7252 254.167 61.3217 252.747 62.1568C245.766 66.3324 241.861 73.1327 238.666 79.2172C238.311 79.8137 237.956 80.4102 237.601 81.126C236.773 82.5576 235.826 84.1086 235.353 85.8981C235.235 86.7332 234.998 89.3579 236.063 90.4316C236.418 90.6702 236.773 90.7895 237.128 90.7895C237.483 90.7895 237.838 90.6702 238.193 90.4316C245.056 86.256 250.144 79.933 254.996 73.9678C257.244 71.1046 259.61 68.122 262.095 65.378Z" fill="#EADFC8"/>
<path d="M332.537 72.1783L332.773 72.5362C332.892 73.252 330.88 73.4906 329.934 73.6099C329.579 73.7292 329.224 73.7292 328.987 73.8485C326.857 74.3257 324.609 74.9223 322.479 75.6381C318.219 76.9504 314.788 78.382 311.711 79.8137C306.978 82.1997 302.6 84.8244 301.416 91.3861C300.351 97.3512 296.92 102.839 291.004 107.969C288.755 109.997 286.27 111.071 283.904 111.071C282.366 111.071 280.827 110.475 279.644 109.52C276.567 106.776 276.567 101.885 279.762 97.7091C283.904 92.4598 289.82 88.8807 295.618 85.7788C299.287 83.87 299.642 81.3646 296.683 77.189C295.618 75.6381 294.672 74.0871 293.843 72.5362L292.897 71.1046C291.122 68.2413 291.24 65.8552 293.015 63.9464C299.05 57.8619 306.741 54.4021 315.734 53.9249H316.326C318.456 53.9249 320.112 54.5215 321.177 55.7145C322.361 57.1461 322.716 59.055 322.124 61.2024C321.532 63.7078 320.231 65.7359 317.864 67.4062C317.391 67.7641 316.917 68.122 316.326 68.122C315.971 68.122 315.616 68.0027 315.261 67.7641C314.314 67.0483 314.551 66.2131 315.143 65.2587C315.971 63.4692 316.917 61.7989 317.746 60.1287C318.219 59.2936 318.692 58.3391 317.982 57.1461C317.509 56.4303 316.799 55.9531 315.971 55.9531C315.616 55.9531 315.379 56.0724 315.143 56.0724L314.788 56.1917C307.215 56.9075 301.061 59.8901 296.447 64.9008C295.027 66.4517 295.145 68.4799 297.038 70.6273C298.103 71.8204 299.05 73.252 299.878 74.6836C301.771 77.6662 303.073 79.933 305.44 79.933C306.268 79.933 307.096 79.6944 308.043 79.2172C314.078 76.3539 320.586 74.445 326.029 72.7748C326.975 72.5362 329.342 71.8204 331.117 71.8204C332.064 71.8204 332.418 72.059 332.537 72.1783ZM287.217 107.85C293.607 104.39 297.275 98.4249 298.813 89.1193L297.985 88.8807C297.867 89.4772 295.737 90.5509 294.672 91.1475C293.962 91.3861 293.488 91.744 293.133 91.8633C291.24 93.2949 289.584 94.4879 288.164 95.9196L287.335 96.6354C284.732 98.7828 281.301 101.885 280.946 105.106C280.946 106.18 281.182 107.015 281.656 107.611C282.247 108.208 283.076 108.566 284.141 108.566C285.442 108.566 286.507 108.208 287.217 107.85Z" fill="#EADFC8"/>
<path d="M396.491 34.5979C396.846 34.8365 396.964 35.3137 396.964 35.7909C397.082 36.2681 396.964 36.7453 395.781 36.7453C395.307 36.7453 394.716 36.626 394.242 36.5067H393.769C385.013 35.3137 376.611 35.1944 368.565 35.1944H362.53C360.519 35.1944 358.389 35.1944 356.377 35.1944C356.259 35.1944 356.259 35.1944 356.259 35.1944C353.774 35.1944 352.117 35.5523 351.052 37.5804L349.041 41.6367C338.746 61.7989 328.097 82.5576 322.18 105.941C319.932 115.127 318.867 123.121 318.985 130.875C318.985 131.233 318.985 131.472 318.985 131.83C318.985 133.142 318.985 134.454 319.932 135.528C320.642 136.244 321.589 136.721 323.127 136.84C323.364 136.96 323.6 137.079 323.837 137.198C324.074 137.556 324.31 137.914 324.31 138.391C324.547 139.584 323.719 139.823 323.009 139.823H322.89C319.459 139.823 317.329 138.272 316.264 134.932C315.199 131.472 315.554 128.131 315.791 125.029L315.909 123.956C317.802 102.481 325.493 83.5121 333.066 65.1394L333.658 63.5885C336.143 57.6233 338.983 51.7775 341.823 46.1702C343.124 43.4263 344.426 40.6823 345.728 38.0576C346.083 37.2225 346.556 36.3874 345.136 34.2399L345.018 34.0013H344.781C341.231 34.0013 337.563 33.882 334.013 33.882C330.227 33.882 326.558 33.882 322.89 33.882C316.855 33.882 311.886 33.882 307.389 34.1206C305.496 34.2399 303.484 34.2399 301.591 34.2399C296.74 34.2399 291.652 34.3592 287.037 35.5523C286.445 35.6716 285.853 35.7909 285.262 35.7909C284.789 35.7909 284.315 35.6716 283.96 35.433C283.605 35.0751 283.487 34.7172 283.25 34.2399C283.132 33.4048 283.369 33.1662 284.434 33.1662C284.67 33.1662 285.972 33.1662 285.972 33.1662H286.327C295.201 32.3311 304.194 32.2118 311.057 32.2118C314.726 32.2118 318.394 32.3311 322.062 32.3311C325.73 32.3311 329.398 32.4504 333.066 32.4504C336.498 32.4504 339.93 32.3311 343.361 32.3311C346.793 32.2118 349.396 31.496 350.934 28.1555C354.366 21.1166 358.862 14.555 364.66 8.1126C364.897 7.99329 365.015 7.75469 365.134 7.51608C365.725 6.91957 366.198 6.20375 366.908 6.20375C367.382 6.20375 367.855 6.44235 368.328 6.91957C369.867 8.2319 369.275 9.30563 368.21 10.8566C367.027 12.5268 365.962 14.0777 364.779 15.6287C361.347 20.4008 357.679 25.4115 354.721 31.6153L354.484 32.2118H364.897C373.416 32.2118 382.646 32.8083 393.296 34.0013C393.532 34.0013 393.887 34.0013 394.124 34.1206C395.071 34.1206 396.017 34.1206 396.491 34.5979Z" fill="#EADFC8"/>
<path d="M369.734 47.6019C369.734 47.6019 369.615 47.6019 369.497 47.4826C369.26 47.3633 369.024 46.7668 369.142 46.6475C370.089 43.4263 371.508 40.3244 373.52 37.2225C373.638 36.9839 373.875 36.8646 374.112 36.8646C374.703 36.8646 375.413 37.3418 375.768 38.0576C375.768 38.0576 375.768 38.1769 375.768 38.2962C375.768 38.4156 375.768 38.5349 375.768 38.5349C373.875 41.5174 372.1 44.3807 370.207 47.3633C370.089 47.4826 369.97 47.6019 369.734 47.6019ZM387.838 75.6381C388.311 75.2802 389.139 75.0416 389.731 75.0416C389.968 75.8767 388.903 76.7118 388.193 77.189L387.483 77.7855C379.2 84.3472 370.562 91.1475 358.374 91.1475H357.782C353.878 91.0282 350.564 89.7158 348.553 87.4491C346.541 85.1823 345.831 82.1997 346.423 78.9786C348.671 68.2413 355.771 61.0831 367.485 57.9812C368.195 57.7426 368.787 57.7426 369.379 57.7426C371.272 57.7426 372.81 58.5778 374.112 60.248C375.887 62.7534 374.822 64.4236 373.402 66.2131C370.089 70.2694 365.119 72.6555 357.782 73.7292C352.458 74.5643 351.629 78.5013 350.919 82.1997L350.683 83.0349C350.446 84.1086 350.683 85.1823 351.393 86.1367C352.221 87.3298 353.523 88.2842 355.416 88.7614C356.954 89.2386 358.374 89.3579 359.912 89.3579C362.516 89.3579 364.764 88.8807 367.485 88.0456C371.627 86.8526 375.768 84.9437 379.91 82.0804C381.803 80.7681 383.578 79.4558 385.471 77.7855C385.708 77.5469 386.063 77.189 386.418 76.9504C386.891 76.4732 387.364 75.996 387.838 75.6381ZM359.084 69.5536L358.374 70.3887L359.557 70.1501C365.119 68.8378 368.787 67.1676 371.627 62.5147L372.218 61.5603L371.035 61.9182C366.42 63.3499 362.634 65.2587 359.084 69.5536Z" fill="#EADFC8"/>
</svg>
